# xmcd
# 
# Track frame offsets:
#     150
#     15832
#     27747
#     42742
#     57995
#     80692
#     96470
#     113655
#     127677
#     142450
#     168782
#     186100
#     203112
#     236510
#     254615
# 
# Disc length: 3566
# 
# Revision: 4
# Processed by: cddbd v1.5.2PL0 Copyright (c) Steve Scherf et al.
# Submitted via: BonkEnc v1.0.8
# 
DISCID=d40dec0f
DTITLE=Various Artist - The Blues Anthology
DYEAR=0
DGENRE=Blues
TTITLE0=Slim and Gibson - I Had It So Hard
TTITLE1=Paul DeLay Band - Rode Myself Crazy
TTITLE2=Louisiana Red - Alabama Train
TTITLE3=Guy and Wells - Hoodoo Man
TTITLE4=Muddy Waters - What's The Matter With The Mill
TTITLE5=Clarence Edwards - Rocky Mountains
TTITLE6=Matt Murphy - Taking Off
TTITLE7=The Clovers - He Sure Could Hypnotize
TTITLE8=Walter Horton - Easy
TTITLE9=Todd Sharpville - Can't Hold Out
TTITLE10=Jimmy Reed - Cry Before I Go
TTITLE11=John Lee Hooker - Goin' Mad Blues
TTITLE12=U P Wilson - Hold On Baby
TTITLE13=Roy Gains and The Crusaders - A Hell Of A Night
TTITLE14=Jay Hawkins - This Is All
EXTD=
EXTT0=
EXTT1=
EXTT2=
EXTT3=
EXTT4=
EXTT5=
EXTT6=
EXTT7=
EXTT8=
EXTT9=
EXTT10=
EXTT11=
EXTT12=
EXTT13=
EXTT14=
PLAYORDER=
